<mxfile host="Electron" agent="Mozilla/5.0 (Windows NT 10.0; Win64; x64) AppleWebKit/537.36 (KHTML, like Gecko) draw.io/26.0.4 Chrome/128.0.6613.186 Electron/32.2.5 Safari/537.36" version="26.0.4">
  <diagram name="Seite-1" id="BFMJSvCSBNZ9-kJGjgbS">
    <mxGraphModel dx="1418" dy="828" grid="1" gridSize="10" guides="1" tooltips="1" connect="1" arrows="1" fold="1" page="1" pageScale="1" pageWidth="827" pageHeight="1169" math="0" shadow="0">
      <root>
        <mxCell id="0" />
        <mxCell id="1" parent="0" />
        <mxCell id="Yj1nDHc-IgpsNm7_o12S-15" value="" style="rounded=0;whiteSpace=wrap;html=1;strokeColor=none;" parent="1" vertex="1">
          <mxGeometry x="20" y="420" width="750" height="150" as="geometry" />
        </mxCell>
        <mxCell id="Yj1nDHc-IgpsNm7_o12S-3" style="edgeStyle=orthogonalEdgeStyle;rounded=0;orthogonalLoop=1;jettySize=auto;html=1;exitX=1;exitY=0.5;exitDx=0;exitDy=0;entryX=0;entryY=0.5;entryDx=0;entryDy=0;endArrow=open;endFill=0;" parent="1" source="Yj1nDHc-IgpsNm7_o12S-1" target="Yj1nDHc-IgpsNm7_o12S-2" edge="1">
          <mxGeometry relative="1" as="geometry" />
        </mxCell>
        <mxCell id="Yj1nDHc-IgpsNm7_o12S-1" value="&lt;font style=&quot;font-size: 20px;&quot;&gt;S&lt;/font&gt;" style="ellipse;whiteSpace=wrap;html=1;aspect=fixed;" parent="1" vertex="1">
          <mxGeometry x="30" y="490" width="70" height="70" as="geometry" />
        </mxCell>
        <mxCell id="Yj1nDHc-IgpsNm7_o12S-2" value="&lt;font style=&quot;font-size: 20px;&quot;&gt;S&#39;&lt;/font&gt;" style="ellipse;whiteSpace=wrap;html=1;aspect=fixed;" parent="1" vertex="1">
          <mxGeometry x="690" y="490" width="70" height="70" as="geometry" />
        </mxCell>
        <mxCell id="Yj1nDHc-IgpsNm7_o12S-4" value="&lt;font style=&quot;font-size: 20px;&quot;&gt;A&lt;/font&gt;" style="whiteSpace=wrap;html=1;aspect=fixed;" parent="1" vertex="1">
          <mxGeometry x="140" y="430" width="50" height="50" as="geometry" />
        </mxCell>
        <mxCell id="Yj1nDHc-IgpsNm7_o12S-5" value="&lt;font style=&quot;font-size: 20px;&quot;&gt;;&lt;/font&gt;" style="text;html=1;align=center;verticalAlign=middle;resizable=0;points=[];autosize=1;strokeColor=none;fillColor=none;fontSize=18;" parent="1" vertex="1">
          <mxGeometry x="620" y="416" width="30" height="40" as="geometry" />
        </mxCell>
        <mxCell id="Yj1nDHc-IgpsNm7_o12S-6" value="&lt;font style=&quot;font-size: 20px;&quot;&gt;tw&lt;/font&gt;" style="text;html=1;align=center;verticalAlign=middle;resizable=0;points=[];autosize=1;strokeColor=none;fillColor=none;fontSize=18;" parent="1" vertex="1">
          <mxGeometry x="620" y="490" width="40" height="40" as="geometry" />
        </mxCell>
        <mxCell id="Yj1nDHc-IgpsNm7_o12S-7" value="&lt;font style=&quot;font-size: 20px;&quot;&gt;Schere-Stein-Papier spielen&lt;/font&gt;" style="text;html=1;align=center;verticalAlign=middle;resizable=0;points=[];autosize=1;strokeColor=none;fillColor=none;" parent="1" vertex="1">
          <mxGeometry x="270" y="530" width="270" height="40" as="geometry" />
        </mxCell>
        <mxCell id="Yj1nDHc-IgpsNm7_o12S-8" value="&lt;font style=&quot;font-size: 20px;&quot;&gt;verbal&lt;/font&gt;" style="text;html=1;align=left;verticalAlign=middle;resizable=0;points=[];autosize=1;strokeColor=none;fillColor=none;" parent="1" vertex="1">
          <mxGeometry x="230" y="430" width="80" height="40" as="geometry" />
        </mxCell>
        <mxCell id="Yj1nDHc-IgpsNm7_o12S-9" value="&lt;font style=&quot;font-size: 20px;&quot;&gt;visuell-gestisch&lt;/font&gt;" style="text;html=1;align=left;verticalAlign=middle;resizable=0;points=[];autosize=1;strokeColor=none;fillColor=none;" parent="1" vertex="1">
          <mxGeometry x="230" y="480" width="160" height="40" as="geometry" />
        </mxCell>
        <mxCell id="Yj1nDHc-IgpsNm7_o12S-10" value="&lt;font style=&quot;font-size: 20px;&quot;&gt;Runde einleiten&lt;/font&gt;" style="text;html=1;align=left;verticalAlign=middle;resizable=0;points=[];autosize=1;strokeColor=none;fillColor=none;" parent="1" vertex="1">
          <mxGeometry x="390" y="430" width="160" height="40" as="geometry" />
        </mxCell>
        <mxCell id="Yj1nDHc-IgpsNm7_o12S-11" value="&lt;span style=&quot;font-size: 20px;&quot;&gt;Spiel-Gesten-Auswahl&amp;nbsp;&lt;/span&gt;" style="text;html=1;align=left;verticalAlign=middle;resizable=0;points=[];autosize=1;strokeColor=none;fillColor=none;" parent="1" vertex="1">
          <mxGeometry x="390" y="480" width="230" height="40" as="geometry" />
        </mxCell>
        <mxCell id="Yj1nDHc-IgpsNm7_o12S-12" value="" style="strokeWidth=2;html=1;shape=mxgraph.flowchart.annotation_1;align=left;pointerEvents=1;" parent="1" vertex="1">
          <mxGeometry x="200" y="430" width="10" height="90" as="geometry" />
        </mxCell>
        <mxCell id="Yj1nDHc-IgpsNm7_o12S-17" value="" style="strokeWidth=2;html=1;shape=mxgraph.flowchart.annotation_1;align=left;pointerEvents=1;rotation=-180;" parent="1" vertex="1">
          <mxGeometry x="610" y="430" width="10" height="90" as="geometry" />
        </mxCell>
      </root>
    </mxGraphModel>
  </diagram>
</mxfile>
